PathFileType	4	(X/Y/Z)	Kaydara	
DataRate	CameraRate	NumFrames	NumMarkers	Units	OrigDataRate	OrigDataStartFrame	OrigNumFrames	
240.00	240.00	4	72	mm	240.00	89	355	
Frame#	Time	Hips			RightUpLeg			RightLeg			RightFoot			RightFoot_End			LeftUpLeg			LeftLeg			LeftFoot			LeftFoot_End			Spine			Spine1			Spine2			Spine3			Neck			Head			Head_End			RightShoulder			RightArm			RightForeArm			RightHand			RightHandThumb1			RightHandThumb2			RightHandThumb3			RightHandThumb3_End			RightInHandIndex			RightHandIndex1			RightHandIndex2			RightHandIndex3			RightHandIndex3_End			RightInHandMiddle			RightHandMiddle1			RightHandMiddle2			RightHandMiddle3			RightHandMiddle3_End			RightInHandRing			RightHandRing1			RightHandRing2			RightHandRing3			RightHandRing3_End			RightInHandPinky			RightHandPinky1			RightHandPinky2			RightHandPinky3			RightHandPinky3_End			LeftShoulder			LeftArm			LeftForeArm			LeftHand			LeftHandThumb1			LeftHandThumb2			LeftHandThumb3			LeftHandThumb3_End			LeftInHandIndex			LeftHandIndex1			LeftHandIndex2			LeftHandIndex3			LeftHandIndex3_End			LeftInHandMiddle			LeftHandMiddle1			LeftHandMiddle2			LeftHandMiddle3			LeftHandMiddle3_End			LeftInHandRing			LeftHandRing1			LeftHandRing2			LeftHandRing3			LeftHandRing3_End			LeftInHandPinky			LeftHandPinky1			LeftHandPinky2			LeftHandPinky3			LeftHandPinky3_End			
		X1	Y1	Z1	X2	Y2	Z2	X3	Y3	Z3	X4	Y4	Z4	X5	Y5	Z5	X6	Y6	Z6	X7	Y7	Z7	X8	Y8	Z8	X9	Y9	Z9	X10	Y10	Z10	X11	Y11	Z11	X12	Y12	Z12	X13	Y13	Z13	X14	Y14	Z14	X15	Y15	Z15	X16	Y16	Z16	X17	Y17	Z17	X18	Y18	Z18	X19	Y19	Z19	X20	Y20	Z20	X21	Y21	Z21	X22	Y22	Z22	X23	Y23	Z23	X24	Y24	Z24	X25	Y25	Z25	X26	Y26	Z26	X27	Y27	Z27	X28	Y28	Z28	X29	Y29	Z29	X30	Y30	Z30	X31	Y31	Z31	X32	Y32	Z32	X33	Y33	Z33	X34	Y34	Z34	X35	Y35	Z35	X36	Y36	Z36	X37	Y37	Z37	X38	Y38	Z38	X39	Y39	Z39	X40	Y40	Z40	X41	Y41	Z41	X42	Y42	Z42	X43	Y43	Z43	X44	Y44	Z44	X45	Y45	Z45	X46	Y46	Z46	X47	Y47	Z47	X48	Y48	Z48	X49	Y49	Z49	X50	Y50	Z50	X51	Y51	Z51	X52	Y52	Z52	X53	Y53	Z53	X54	Y54	Z54	X55	Y55	Z55	X56	Y56	Z56	X57	Y57	Z57	X58	Y58	Z58	X59	Y59	Z59	X60	Y60	Z60	X61	Y61	Z61	X62	Y62	Z62	X63	Y63	Z63	X64	Y64	Z64	X65	Y65	Z65	X66	Y66	Z66	X67	Y67	Z67	X68	Y68	Z68	X69	Y69	Z69	X70	Y70	Z70	X71	Y71	Z71	X72	Y72	Z72	

89	0.367	4921.0129	906.651	56.2195	5000.124801888932	891.9341801385566	2.5710414809696926	4923.175256020774	490.3482399141864	-87.56471139497813	4907.455059646752	106.39684347772423	-160.96709499441653	4832.5604234981	31.037245025723287	-2.0570314703454766	4850.66725748226	892.8310973360569	121.31289396276135	4787.762304040068	489.2213568677821	214.67228589852388	4747.182715633093	57.49174520801206	295.1672215220566	4614.00562243901	-16.964107812246684	179.75420704344586	4879.348781817236	1034.008766779415	6.3373788236967705	4830.994632045435	1100.9809052330631	-44.069875460287044	4776.2389790136785	1165.1937596078517	-99.17058449365653	4717.5123599949175	1217.0195179668974	-156.38667437000836	4654.282859977627	1272.5939715710642	-216.84376781538538	4595.413454746089	1322.996831663373	-271.0532941194486	4476.763024214388	1416.987413438453	-321.97527818727656	4698.8057255452595	1256.5599033969297	-218.4235096824353	4760.9811728189725	1250.3348783838271	-332.32540492185785	4768.000237601631	975.4088410598357	-340.42524315647535	4805.560759028351	758.0910896793025	-399.7322265506682	4811.123530116241	741.746606531581	-412.34025535057486	4798.171466315283	726.8913001165771	-425.4934131167567	4788.917444183053	715.2166906270861	-433.5542251879665	4781.002402517651	704.3468324131129	-439.33396892329785	4812.709863726699	734.5527885935709	-409.33694259553596	4814.470321531497	697.6713028745401	-420.893508925413	4805.463527611614	676.9666208486058	-430.11241573759514	4794.301874884134	670.762506337194	-436.4882145861547	4781.311549001756	670.1251224394777	-442.20013086279863	4811.525246139087	732.456617036006	-406.0014002749005	4812.60450396547	695.3482865885101	-415.46879597239354	4802.601503491343	672.6046029614225	-425.0523260588902	4789.051482595393	665.0472436436178	-432.5160087523239	4774.7969233857775	664.3146760734392	-438.65480655987125	4810.746103360455	731.8504230662921	-403.3331018733826	4811.337495646709	697.8734433410278	-409.45225284109017	4802.437346265825	677.9550915515428	-417.3039016372995	4789.270878562406	670.6150520340865	-424.236952430348	4775.822312060532	669.9023923999151	-429.88279135661094	4808.987957742399	732.7433616012333	-400.05553918959015	4808.791712031469	701.8956426876358	-403.5946326451245	4801.37830439527	685.9464075509212	-409.0731556369104	4791.636040941105	680.5928662268419	-413.73891499538036	4779.643036671542	679.9617479872412	-418.5150472876063	4651.037200678132	1252.2698595940187	-173.55940066546475	4580.944327025025	1189.004078177914	-79.47050338706407	4695.669498366517	1000.5104378015411	-203.48841870319626	4845.347160494313	825.4836416715068	-322.93862919333213	4831.082937074484	822.8274516445325	-347.9158638736618	4828.58873125795	810.2947073543583	-380.4595041423049	4827.296216154285	799.0344685870239	-402.3340095140027	4826.598917558934	787.4808675167807	-419.8949691819423	4830.0598857292935	813.5599797930515	-346.77689770298406	4814.008350595342	785.708685033276	-382.8932178644691	4809.82249136893	766.0367896747172	-411.24571565935935	4811.937406402525	757.871575569115	-428.479540434208	4816.869864279493	753.8550645843771	-442.478940353033	4832.159387932063	807.6277677500339	-343.5272056345393	4817.636829292004	777.2538038028142	-376.99530095475774	4813.407036756258	755.095086671588	-407.391597835745	4816.120725344328	744.9116326390813	-427.92352166046084	4821.596541406409	740.355241417236	-443.1149766166964	4833.981085911826	804.1282326168174	-340.2790101889764	4822.33900165877	773.8132120821393	-367.3637427379399	4819.021253014629	753.8395983489554	-393.2509696370432	4821.834767070079	743.6663639422097	-412.733656812689	4827.0762783518085	739.2161222332749	-426.8648708409063	4837.106676063872	801.0525699130524	-335.73046370547746	4828.1114140796935	771.2784269775701	-357.67705131561064	4826.081593015267	754.3869701607645	-377.3427980869208	4828.437038865177	746.5325059135973	-391.03896283909876	4833.254692801965	742.3405086754581	-403.2607680173103
90	0.371	4921.0129	906.651	56.2195	4999.976470309894	891.9218651455276	2.5553114643565413	4923.013848123037	490.31592615713066	-87.4018514995247	4907.8740582663895	106.47763331675672	-160.99492029546363	4832.987314910564	31.10980277642612	-2.0849702055098724	4850.820249172565	892.8397237005017	121.31440562537941	4787.917015122129	489.2527480076667	214.76630144378578	4747.202382233665	57.52305949602524	295.09912314159453	4614.065210315398	-16.97021961890108	179.67199487304345	4879.332144357414	1034.0260497885129	6.401983687866128	4830.896323158964	1100.968354808906	-43.95580905081651	4776.062264091461	1165.151181292061	-98.99817126763539	4717.300470931059	1216.9828146744303	-156.15228230701334	4654.03577009846	1272.5642123998693	-216.54451831207155	4595.139647041792	1322.975619115312	-270.69705071619563	4476.519514473827	1417.0101243160314	-321.6013922830488	4698.542687681102	1256.56255034815	-218.09700161738252	4760.714097106864	1250.5726291898745	-331.65488685968995	4767.838609913719	975.9057374526853	-340.0414794876325	4804.711301837653	758.1346155922483	-399.7650504788281	4810.699798461729	741.9880719812484	-412.33327574478363	4798.095893376004	726.9291500231235	-425.6776482741219	4789.016446241432	715.0702462526583	-433.8898703068748	4781.188868284782	704.010394956911	-439.8114485462104	4812.073197507757	734.6895930627729	-409.37387022608334	4813.944558101498	697.6651924565346	-421.08172909580315	4805.061160516781	676.7033895508471	-430.50129470470665	4794.048284204514	670.2985867259215	-437.0275898311825	4781.22970747122	669.467547801404	-442.881438784114	4810.70228651553	732.4753178430202	-406.08722688804977	4811.788936183413	695.1637552299179	-415.7286109584743	4801.89570269524	672.1241846962813	-425.53718046036096	4788.513234500177	664.3173521457079	-433.18534927044465	4774.440795463851	663.369317693451	-439.4808655396613	4809.787806422514	731.7906253513892	-403.44879586550314	4810.26573373769	697.5671544566005	-409.7474060409336	4801.43582304837	677.3755571662739	-417.80114955160445	4788.417466124017	669.7867295198286	-424.9153115383005	4775.133737739764	668.8676137452213	-430.7100027017119	4807.877483070577	732.5870313838521	-400.20772589815374	4807.480397143783	701.458018469276	-403.9312164079402	4800.084054354876	685.2670968625006	-409.58007521774283	4790.430870986706	679.72101990769	-414.38205230509834	4778.572979022459	678.9006450487316	-419.292411385076	4650.829086529617	1252.2004869995078	-173.3330269766379	4580.980948271986	1188.7407179347406	-79.53458752374189	4695.541339319314	1000.4147015118186	-203.75036154528286	4844.573457021663	825.2094316664204	-322.9764544008927	4830.497663244468	822.9931480993719	-347.95499990379034	4828.239307723687	810.601848707025	-380.1579175782506	4827.091953046131	799.3826159745604	-401.78128479513225	4826.499341446291	787.8140135213587	-419.12102561066007	4829.415209633516	813.5779105773036	-346.7965827706899	4813.525913884706	785.8819506040866	-382.70336276920733	4809.497151915771	766.2221024781671	-410.7492129073763	4811.736950398182	758.0464379751162	-427.7316645560202	4816.791132769158	754.0091759287046	-441.48203885030887	4831.459256118383	807.4793464165007	-343.5088455733972	4817.064932042352	777.1669389228329	-376.7520292031935	4812.998775712659	754.9987937582518	-406.8091711011287	4815.859394223409	744.7918993496177	-427.0356434351391	4821.466581942623	740.2075368250499	-441.95355953354544	4833.237093214625	803.8589500385453	-340.240619207036	4821.670274858278	773.4960239657751	-367.11078842208724	4818.486995472505	753.4910165228796	-392.6981031142754	4821.437903744548	743.2828637323055	-411.8838722105063	4826.800884844791	738.8004893115235	-425.7568077552876	4836.311694703011	800.6345220765794	-335.6632341184004	4827.35226810996	770.7268927836628	-357.40021480725215	4825.4170756581225	753.774343097275	-376.82001339354304	4827.8664250206475	745.8770172513116	-390.2968042922535	4832.788048713921	741.6465464298428	-402.28820477374614
91	0.375	4921.0129	906.651	56.2195	4999.818788010117	891.9059269324634	2.535732133254333	4922.8282882092435	490.2814109482744	-87.23748572102598	4908.285307023389	106.55866130947622	-161.02690140487144	4833.4060716542845	31.182212174342048	-2.117455114921308	4850.983257846212	892.852344512483	121.3203163224666	4788.076661350151	489.28917323632874	214.86525444634603	4747.221884738421	57.560239514470545	295.03486770028485	4614.125110345896	-16.970973988199994	179.59355512263994	4879.312776770779	1034.0417849832918	6.464311843867619	4830.793766389396	1100.9535976007057	-43.84442940568824	4775.878699247218	1165.1046566957723	-98.8287176621962	4717.078433175614	1216.93977305149	-155.92000776972264	4653.775120234702	1272.5256416748286	-216.24644422668675	4594.849322473858	1322.9434911010046	-270.34099363488997	4476.261178442511	1417.0235146690884	-321.2283296187029	4698.262792419464	1256.5543708988223	-217.7718526602971	4760.417435315627	1250.792968029058	-330.97327869397515	4767.663583114664	976.4087264586186	-339.58706986367986	4803.892651078502	758.1613689117847	-399.79097808028087	4810.309006065768	742.2293598021193	-412.3178017451545	4798.072652821506	726.9825916048493	-425.85394975084785	4789.182836841567	714.947623734462	-434.218808386341	4781.456600934162	703.7022866254856	-440.2839590243947	4811.4740519856805	734.8172783796829	-409.4052040844144	4813.477411283396	697.6540547288356	-421.2692317138919	4804.738358544934	676.4411859933144	-430.89258327139953	4793.887822522532	669.8431437789216	-437.5701131898663	4781.252586137506	668.827100596988	-443.5656928623285	4809.92062914079	732.4774257312196	-406.1695515695339	4811.037290628448	694.9625785430428	-415.99081168105084	4801.277121481631	671.6327329484059	-426.028092806609	4788.078780668459	663.584936351776	-433.86176343010146	4774.201246936113	662.4306683245322	-440.3138377976083	4808.87289575689	731.7088003411062	-403.562350513186	4809.2592949439295	697.233928352788	-410.0469059938646	4800.520341957124	676.7729600820492	-418.3062011603078	4787.666302707677	668.9430121348923	-425.6025901260546	4774.559537613521	667.8258659854569	-431.5460472134679	4806.812573883731	732.4026837640383	-400.3591304521239	4806.2359529115565	700.9840150168792	-404.2738359770022	4798.873814948462	684.5529450151415	-410.09617018689346	4789.321798589317	678.8191685654612	-415.03535851232175	4777.609912685233	677.816565391787	-420.07997132274807	4650.613210837988	1252.1260549742533	-173.1084273215695	4581.033347792945	1188.4852704190241	-79.59978835168255	4695.417223491171	1000.3431767742543	-204.02208556134593	4843.785420483594	824.9483209880983	-323.02853976330726	4829.902087773195	823.164957683808	-347.99167591693026	4827.872044163577	810.8939727305577	-379.8495252574732	4826.8633545558205	799.7015221851776	-401.22147644790795	4826.3689494616065	788.1064809187186	-418.34211802347056	4828.75694886266	813.604573898418	-346.8215395579671	4813.022897756394	786.0526056286786	-382.51777847685344	4809.142026435671	766.3889049536158	-410.25941888826986	4811.500160410955	758.1889904871687	-426.9915723614215	4816.670091554456	754.1169149001336	-440.4935134892226	4830.742188962749	807.3410084273961	-343.5034165100002	4816.467465852232	777.0798266091087	-376.5248542005957	4812.554474645343	754.8851086183176	-406.24651916771967	4815.5539193308105	744.638223544224	-426.16932529727416	4821.285841091577	740.010550640703	-440.81458823464004	4832.474010939448	803.601076852202	-340.220581994351	4820.9729520430565	773.1823785549338	-366.88369123155803	4817.914594267797	753.1312588565031	-392.17533496851144	4820.994856464839	742.8723430539146	-411.0664579215499	4826.472960397057	738.3434699396262	-424.6822083283576	4835.495071593493	800.2290926706773	-335.62074807917094	4826.561301310483	770.1817794242529	-357.1588956593122	4824.712476459847	753.1567354284148	-376.3377250953322	4827.249566910197	745.2051768920672	-389.5975649503546	4832.269366574487	740.9236136252762	-401.3599699077246
92	0.379	4921.0129	906.651	56.2195	4999.651476162894	891.8859838956226	2.512029034786973	4922.619066007841	490.2441721611574	-87.07208241472084	4908.688252898429	106.63932765447028	-161.06334070435344	4833.816152108995	31.253797165279867	-2.1548222772653887	4851.156474844735	892.8693364953533	121.33095770014762	4788.241822916044	489.3308666830851	214.9691358122109	4747.241787577325	57.60353200334732	294.97446531685955	4614.185905056439	-16.966179942714433	179.51891133020538	4879.291074437872	1034.056005377617	6.524117940934931	4830.687851628325	1100.9369604907859	-43.73607863683567	4775.68970371339	1165.0548916169241	-98.66268286356133	4716.847925416715	1216.8912600836925	-155.69046963655217	4653.502839917647	1272.4792769917206	-215.9503289953505	4594.544606638104	1322.9015857742127	-269.98604123211135	4475.989712421326	1417.0282109169866	-320.85692260062484	4697.967852755068	1256.5359963588096	-217.44904139944347	4760.0933952743435	1250.9959913487417	-330.28339747496085	4767.475911437198	976.9177098639038	-339.06327931312546	4803.107279424545	758.1768974175412	-399.8097330739538	4809.95174829282	742.4757283675789	-412.2942915965784	4798.100353607334	727.0581155228941	-426.0222144018733	4789.414112034358	714.8563549453593	-434.5404293314822	4781.802400082127	703.4310638976112	-440.75036840874213	4810.913893725481	734.9416370053818	-409.4311585879388	4813.069492453051	697.6451488282485	-421.4560978078007	4804.4947425657565	676.1888002682892	-431.2857108953089	4793.819123953156	669.4059365665439	-438.11460718306853	4781.377752159577	668.2143535102946	-444.2510770992753	4809.182487080208	732.4692042264884	-406.24825132553184	4810.3513501356665	694.7527052584502	-416.2549626967659	4800.746562624962	671.1399250610042	-426.523871873927	4787.747781752634	662.8608704910251	-434.5433062686836	4774.076794520745	661.5105059755481	-441.1510692680372	4808.004139266694	731.6115032481938	-403.67341273446823	4808.321059656596	696.8820729229474	-410.34993416917996	4799.693032780502	676.1571715606482	-418.8175338556652	4787.018471462996	668.0949557445957	-426.29651446803115	4774.099745321503	666.7890690369023	-432.387973020892	4805.79661812963	732.1971967400248	-400.50909993328145	4805.062271267084	700.4823049552489	-404.6212430408765	4797.75103818387	683.8139573698523	-410.6195596954527	4788.311590278334	677.8982207244507	-415.6963716491045	4776.755719352805	676.721205457001	-420.8746452698864	4650.391465762756	1252.047885260204	-172.88607329912804	4581.102460886236	1188.2408836961563	-79.6651602803285	4695.298023225537	1000.2978922188149	-204.30047885520992	4842.983414012138	824.7038693230637	-323.0923134306411	4829.29568477329	823.3446695164505	-348.0237914894123	4827.485582921198	811.172411551651	-379.5336900680777	4826.608588347297	799.9924621768713	-400.65489580260294	4826.205602998339	788.3597203541955	-417.5592880224139	4828.084886238554	813.6424590977198	-346.84933935272454	4812.498519075517	786.2227892021001	-382.3345061022073	4808.755855441256	766.5394836297629	-409.7753342675414	4811.225394259847	758.301640513767	-426.25922936363963	4816.504723319741	754.1808086699875	-439.51437681160627	4830.0082694571975	807.215984002242	-343.5083114060448	4815.844124083764	776.9957560905008	-376.3115305248607	4812.073348459282	754.7575807442668	-405.7024194121469	4815.203073703752	744.4543482421236	-425.3244970326102	4821.052691069608	739.7681801084385	-439.69913248633344	4831.692150000498	803.3583733099459	-340.2161467435099	4820.247196914228	772.8765422636343	-366.67987790052746	4817.303838929141	752.764920120098	-391.6809581126813	4820.5050112986255	742.4396372585729	-410.2808050182258	4826.091524987689	737.8500700257626	-423.6415291360387	4834.657385640796	799.8406813813083	-335.60012681653444	4825.739127324305	769.6483370929476	-356.9502779470142	4823.968176924807	752.5398164635785	-375.89377068059804	4826.58658439685	744.5229051752219	-388.9398638617041	4831.698460738379	740.1778251652827	-400.4756151422772
